<svg width="24" height="24" viewBox="0 0 24 24" fill="none" xmlns="http://www.w3.org/2000/svg">
<g id="Frame">
<path id="Union" fill-rule="evenodd" clip-rule="evenodd" d="M19.5908 13.854C20.1377 14.3696 20.5869 14.8575 20.919 15.2993C21.6589 16.283 21.8546 17.0916 21.4995 17.7018C21.2151 18.1948 20.6424 18.444 19.7971 18.444H19.7291C19.0627 18.4319 18.2154 18.2744 17.2103 17.9752L17.1673 17.9623C16.7399 17.8342 16.2915 17.6822 15.827 17.5096C15.4983 17.3877 15.1623 17.2554 14.8188 17.1127C14.0176 16.7803 13.1796 16.3927 12.3241 15.963C11.9577 15.7789 11.5883 15.5861 11.2159 15.3845C10.8435 15.1829 10.4706 14.9746 10.0971 14.7595C9.06856 14.1669 8.01969 13.5063 7.02708 12.8184C6.80676 12.6679 6.58931 12.5145 6.37471 12.3582C6.16012 12.202 5.94983 12.0457 5.74383 11.8895C5.43523 11.6543 5.13522 11.4176 4.84927 11.1832C4.45629 10.8601 4.08791 10.5382 3.75079 10.2206C2.69255 9.22451 1.94487 8.2737 1.7351 7.49008C1.59329 6.96232 1.71478 6.59082 1.84135 6.37285C2.19097 5.76814 2.97655 5.5318 4.17698 5.66931C4.73403 5.73376 5.39538 5.87986 6.13213 6.09901C5.79064 6.41753 5.47699 6.76463 5.19459 7.13655C3.63087 6.74239 3.00819 6.90295 2.92381 6.99787C2.88748 7.10881 3.02499 7.70844 4.1801 8.89052C4.34613 9.06123 4.53285 9.24209 4.74341 9.43741C4.87883 9.56242 5.01933 9.68833 5.16491 9.81516C5.30655 9.40143 5.48746 9.0022 5.70516 8.62293C5.70737 8.61916 5.70963 8.61538 5.71188 8.61161C5.7164 8.60405 5.72091 8.5965 5.72508 8.58894C6.18314 7.80295 6.79148 7.11484 7.51538 6.56387C8.70974 5.65362 10.1701 5.16102 11.6718 5.16187C15.211 5.16187 18.1341 7.85064 18.508 11.2949C18.5341 11.5414 18.5472 11.7892 18.547 12.0371C18.5469 13.2346 18.2329 14.4111 17.6364 15.4493C17.6324 15.4566 17.6281 15.4636 17.6239 15.4706C17.6213 15.475 17.6187 15.4794 17.6161 15.4837C17.396 15.8619 17.1404 16.2184 16.8528 16.5482C17.0359 16.611 17.2155 16.6694 17.3915 16.7236C17.6647 16.8075 17.9163 16.8786 18.1462 16.9369C19.7518 17.3439 20.3397 17.1619 20.4178 17.0748C20.458 16.9533 20.283 16.3345 19.1611 15.1821C19.3427 14.7528 19.4865 14.3084 19.5908 13.854ZM11.6717 18.9125C8.12709 18.9125 5.2012 16.2171 4.83556 12.7681C6.19655 13.8147 7.80442 14.8834 9.47323 15.844C11.1811 16.828 12.8901 17.6734 14.4644 18.3191C13.5857 18.7114 12.634 18.9136 11.6717 18.9125Z" fill="#FAFAFA" fill-opacity="0.4"/>
</g>
</svg>
